<svg xmlns="http://www.w3.org/2000/svg" width="22.015" height="22.016" viewBox="0 0 22.015 22.016"><defs><style>.a{fill:#082640;}.b{fill:none;}.c{fill:#fff;}</style></defs><g transform="translate(0 0)"><path class="a" d="M98.488,7.5h13.545V28.871H98.488Zm0,0" transform="translate(-94.253 -7.177)"/><path class="a" d="M383.488,7.5h1.29V28.871h-1.29Zm0,0" transform="translate(-366.998 -7.177)"/><path class="b" d="M167.988,60.488h7.568v6.364h-7.568Zm0,0" transform="translate(-160.765 -57.887)"/><path class="b" d="M167.987,132.039l2.267-1.99a.166.166,0,0,1,.21-.007l4.365,3.34h-6.843Zm0,0" transform="translate(-160.764 -124.418)"/><path class="b" d="M279,82.649a.813.813,0,1,1-.813-.813A.813.813,0,0,1,279,82.649Zm0,0" transform="translate(-265.444 -78.317)"/><path class="b" d="M290.82,136.476l2.286-1.987v3.182h-.725Zm0,0" transform="translate(-278.315 -128.705)"/><path class="a" d="M7.676,212.279a.645.645,0,0,1,0-.912l4.226-4.226.912.912-4.226,4.226A.645.645,0,0,1,7.676,212.279Zm0,0" transform="translate(-7.165 -198.234)"/><path class="a" d="M170.876,117.034l-1.524-1.524a.211.211,0,0,1,0-.3L181.7,102.865a.623.623,0,0,1,.881,0l.941.941a.623.623,0,0,1,0,.881l-12.347,12.347A.211.211,0,0,1,170.876,117.034Zm0,0" transform="translate(-162.011 -98.267)"/><path class="a" d="M198.544,108.54l-.911-.911a.623.623,0,0,1,0,.881l-12.347,12.347a.211.211,0,0,1-.3,0l.911.911a.211.211,0,0,0,.3,0l12.347-12.347a.623.623,0,0,0,0-.881Zm0,0" transform="translate(-177.034 -103)"/><path class="b" d="M170.876,378.932l-1.524-1.524a.211.211,0,0,1,0-.3l.762-.762,1.822,1.822-.762.762A.211.211,0,0,1,170.876,378.932Zm0,0" transform="translate(-162.011 -360.165)"/><path class="b" d="M186.048,397.535l-.762.762a.211.211,0,0,1-.3,0l.911.911a.211.211,0,0,0,.3,0l.762-.762Zm0,0" transform="translate(-177.034 -380.441)"/><path class="b" d="M144.49,406.616c.233-2.135,1.271-2.253,1.271-2.253L147,405.6s-.117,1.038-2.253,1.272A.232.232,0,0,1,144.49,406.616Zm0,0" transform="translate(-138.276 -386.976)"/><path class="b" d="M414.582,129.935l.911-.911,1.822,1.822-.911.911Zm0,0" transform="translate(-396.755 -123.475)"/><path class="b" d="M435.77,151.122l.911-.911.911.911-.911.911Zm0,0" transform="translate(-417.032 -143.751)"/><path class="a" d="M349.646,402.01h-5.125a.534.534,0,0,1-.534-.534v-1.943a.534.534,0,0,1,.534-.534h5.125a.534.534,0,0,1,.534.534v1.943A.534.534,0,0,1,349.646,402.01Zm0,0" transform="translate(-329.197 -381.843)"/><path class="a" d="M429.634,402.01H427.57V399h2.064a.534.534,0,0,1,.534.534v1.943A.534.534,0,0,1,429.634,402.01Zm0,0" transform="translate(-409.185 -381.843)"/><path class="a" d="M446.868,399h-1.29a.534.534,0,0,1,.534.534v1.943a.534.534,0,0,1-.534.534h1.29a.534.534,0,0,0,.534-.534v-1.943A.534.534,0,0,0,446.868,399Zm0,0" transform="translate(-426.418 -381.843)"/><path class="a" d="M397.57,399h1.29v3.01h-1.29Zm0,0" transform="translate(-380.475 -381.843)"/><path class="a" d="M85.217,91.1a3.44,3.44,0,1,1,4.865,0A3.444,3.444,0,0,1,85.217,91.1Zm0,0" transform="translate(-80.59 -81.566)"/><path class="a" d="M103.288,99.44a3.435,3.435,0,0,0-.5-.413,3.439,3.439,0,0,1-4.778,4.778,3.44,3.44,0,1,0,5.277-4.365Zm0,0" transform="translate(-93.797 -94.769)"/><path class="b" d="M272.143,75.472a1.136,1.136,0,1,0-1.136,1.136A1.137,1.137,0,0,0,272.143,75.472Zm-1.627,0a.491.491,0,1,1,.491.491A.491.491,0,0,1,270.516,75.472Zm0,0" transform="translate(-258.267 -71.139)"/><path class="c" d="M21.738,6.648a.946.946,0,0,0,0-1.337L20.8,4.37a.946.946,0,0,0-1.337,0L18.1,5.728V4.139a.322.322,0,1,0-.645,0V6.373L15.114,8.716V2.6a.323.323,0,0,0-.322-.322H9.631a.322.322,0,1,0,0,.645h4.837V5.636L12.492,7.354,10.633,5.932A3.751,3.751,0,0,0,7.546,3.374V2.924h.709a.322.322,0,0,0,0-.645H7.223A.323.323,0,0,0,6.9,2.6v.745a3.73,3.73,0,0,0-2.343.948V.645h12.9V2.752a.322.322,0,0,0,.645,0V.323A.322.322,0,0,0,17.78,0H4.235a.322.322,0,0,0-.322.322V5.041a3.774,3.774,0,0,0,0,4.125v.11l-3.63,3.63a.967.967,0,0,0,1.369,1.368l2.261-2.261v5.854a.322.322,0,0,0,.645,0v-6.5l.872-.872a3.76,3.76,0,0,0,4.693-1.208h4.42l-2.17,2.171H6.149a.322.322,0,1,0,0,.645h5.578l-.788.788H6.149a.322.322,0,1,0,0,.645h4.145l-.788.788H6.149a.322.322,0,1,0,0,.645H8.861l-.789.789H6.149a.322.322,0,1,0,0,.645H7.427l-.314.314a.533.533,0,0,0-.128.544A3.006,3.006,0,0,0,5.894,19.6a.552.552,0,0,0,.609.609,3,3,0,0,0,2.344-1.091.537.537,0,0,0,.167.027A.531.531,0,0,0,9.391,19l4.026-4.026h2.191a.322.322,0,0,0,0-.645H14.062l.788-.788h.758a.322.322,0,1,0,0-.645h-.113l1.962-1.962v5.905H15.325a.857.857,0,0,0-.856.856v1.943a.857.857,0,0,0,.856.856h2.132v.881H4.558V19.285a.322.322,0,0,0-.645,0v2.408a.322.322,0,0,0,.322.322H17.78a.322.322,0,0,0,.322-.322v-1.2H20.45a.857.857,0,0,0,.856-.856V17.69a.857.857,0,0,0-.856-.856H18.1v-6.55ZM15.114,19.633V17.69a.211.211,0,0,1,.211-.211h1.448v2.365H15.325A.211.211,0,0,1,15.114,19.633Zm2.3-2.154h.645v2.365h-.645Zm3.243.211v1.943a.211.211,0,0,1-.211.211H18.708V17.479H20.45A.211.211,0,0,1,20.661,17.69ZM9.925,17.549,8.559,16.183l9.268-9.268,1.366,1.366Zm-.911.911L7.648,17.094l.455-.455L9.469,18ZM18.738,6,20.1,7.37l-.455.455L18.283,6.459Zm1.178-1.178a.3.3,0,0,1,.424,0l.941.941a.3.3,0,0,1,0,.424l-.722.722L19.194,5.548ZM14.469,6.491V8.643h-.293l-1.16-.888ZM4.008,11l0,0L1.2,13.817a.323.323,0,1,1-.456-.456l3.63-3.63.03.032a3.8,3.8,0,0,0,.459.391Zm3.051-.785a3.116,3.116,0,1,1,2.2-.912A3.1,3.1,0,0,1,7.06,10.219Zm3.432-1.577a3.776,3.776,0,0,0,.321-1.761l2.3,1.761ZM6.535,19.675h0Zm.014-.116c.163-1.268.626-1.674.853-1.8L7.647,18l-.379.379a.322.322,0,1,0,.456.456l.379-.379.247.247c-.123.223-.528.689-1.8.852Zm0,0" transform="translate(0 0)"/></g></svg>