<svg xmlns="http://www.w3.org/2000/svg" width="22" height="19" viewBox="0 0 22 19"><defs><style>.a{fill:#8e8e8e;}</style></defs><g transform="translate(0 -44.8)"><g transform="translate(0 44.8)"><g transform="translate(0 0)"><path class="a" d="M21.268,47.76a2.269,2.269,0,0,0-1.736-.8H16.061v-.046A2.164,2.164,0,0,0,15.5,45.42a1.832,1.832,0,0,0-1.359-.62H7.863a1.843,1.843,0,0,0-1.38.62,2.207,2.207,0,0,0-.565,1.492v.046H2.468a2.269,2.269,0,0,0-1.736.8A2.864,2.864,0,0,0,0,49.665V61.092A2.723,2.723,0,0,0,.732,63a2.384,2.384,0,0,0,1.736.8H19.532a2.269,2.269,0,0,0,1.736-.8,2.864,2.864,0,0,0,.732-1.9V49.665A2.723,2.723,0,0,0,21.268,47.76Zm-.356,13.332h-.021a1.549,1.549,0,0,1-.4,1.056,1.286,1.286,0,0,1-.962.436H2.468a1.286,1.286,0,0,1-.962-.436,1.549,1.549,0,0,1-.4-1.056V49.665a1.549,1.549,0,0,1,.4-1.056,1.286,1.286,0,0,1,.962-.436H6.5a.592.592,0,0,0,.565-.62v-.665a.95.95,0,0,1,.23-.643.784.784,0,0,1,.586-.252h6.253a.784.784,0,0,1,.586.252.95.95,0,0,1,.23.643v.665a.592.592,0,0,0,.565.62h4.036a1.286,1.286,0,0,1,.962.436,1.549,1.549,0,0,1,.4,1.056Z" transform="translate(0 -44.8)"/><path class="a" d="M117.456,130.8a5.452,5.452,0,1,0,3.859,1.6A5.465,5.465,0,0,0,117.456,130.8Zm3.016,8.494a4.284,4.284,0,0,1-6.033,0,4.24,4.24,0,0,1-1.242-3.016,4.334,4.334,0,0,1,1.242-3.016,4.24,4.24,0,0,1,3.016-1.242,4.334,4.334,0,0,1,3.016,1.242,4.24,4.24,0,0,1,1.242,3.016A4.15,4.15,0,0,1,120.472,139.294Z" transform="translate(-106.456 -125.934)"/><circle class="a" cx="1.087" cy="1.087" r="1.087" transform="translate(17.143 4.933)"/></g></g></g></svg>