<svg viewBox="0 0 126.12 106.9" xmlns="http://www.w3.org/2000/svg"><path d="m405 133.8v-45c0-2 1.22-2.93 2.72-2.06l33.93 19.72a6.53 6.53 0 0 1 2.71 5.21v45z" fill="#fff" transform="translate(-318.81 -61.73)"/><path d="m444.92 157.72-40.56-23.57v-45.39a3 3 0 0 1 1.24-2.76 2.31 2.31 0 0 1 2.38.14l33.93 19.72a7.11 7.11 0 0 1 3 5.74zm-39.35-24.27 38.15 22.17v-44a6 6 0 0 0 -2.41-4.69l-33.93-19.71a1.21 1.21 0 0 0 -1.18-.14 1.91 1.91 0 0 0 -.63 1.68z" fill="#082640" transform="translate(-318.81 -61.73)"/><path d="m440.3 147.78-31.3-18.2a2.64 2.64 0 0 1 -1.09-2.1v-35.8c0-.81.49-1.18 1.09-.83l31.32 18.2a2.62 2.62 0 0 1 1.1 2.1v35.85c-.02.76-.51 1.13-1.12.78z" fill="#d67205" transform="translate(-318.81 -61.73)"/><path d="m437.9 134.23-6.25-13.94c-.12-.27-.36-.43-.51-.34l-8.72 5.48c-.46.3-1.24-.82-.91-1.31l2.92-4.33a.81.81 0 0 0 0-.71l-3.82-8.84c-.35-.79-1.09-1.25-1.47-.9-1.71 1.59-5.86 5.44-7.62 7a3 3 0 0 0 -.81 2.28v7.38a2.7 2.7 0 0 0 1.2 2.1l25.52 14.83c.67.38 1.21.07 1.21-.7v-5a7.56 7.56 0 0 0 -.74-3z" fill="#fff" transform="translate(-318.81 -61.73)"/><path d="m438 143.65a1.66 1.66 0 0 1 -.85-.25l-25.52-14.83a3.27 3.27 0 0 1 -1.51-2.62v-7.28a3.59 3.59 0 0 1 1-2.73c1.76-1.6 5.91-5.45 7.63-7a1 1 0 0 1 1-.25 2.29 2.29 0 0 1 1.45 1.36l3.82 8.84a1.33 1.33 0 0 1 0 1.29l-3.02 4.28a1.24 1.24 0 0 0 .24.37l8.57-5.4a.8.8 0 0 1 .66-.07 1.23 1.23 0 0 1 .72.68l6.26 13.96a8.07 8.07 0 0 1 .76 3.25v5a1.47 1.47 0 0 1 -.65 1.31 1.29 1.29 0 0 1 -.56.09zm-18.49-33.81c-1.74 1.62-5.83 5.41-7.57 7a2.47 2.47 0 0 0 -.61 1.83v7.33a2.07 2.07 0 0 0 .9 1.57l25.53 14.83a.46.46 0 0 0 .25.09.48.48 0 0 0 .05-.26v-5a7 7 0 0 0 -.65-2.75l-6.21-13.82-8.46 5.34a1.06 1.06 0 0 1 -1.36-.29 1.58 1.58 0 0 1 -.36-1.88l2.9-4.32s0 0-.07-.14l-3.85-8.89a1.17 1.17 0 0 0 -.54-.64z" fill="#082640" transform="translate(-318.81 -61.73)"/><path d="m430 112.49c0 1.93-1.34 2.71-3 1.75a6.68 6.68 0 0 1 -3-5.23c0-1.92 1.34-2.7 3-1.74a6.68 6.68 0 0 1 3 5.22z" fill="#fff" transform="translate(-318.81 -61.73)"/><path d="m428.35 115.25a3.25 3.25 0 0 1 -1.64-.49 7.24 7.24 0 0 1 -3.3-5.75 2.69 2.69 0 0 1 1.18-2.47 2.63 2.63 0 0 1 2.72.21 7.23 7.23 0 0 1 3.29 5.74 2.69 2.69 0 0 1 -1.17 2.48 2.12 2.12 0 0 1 -1.08.28zm-2.68-7.78a1 1 0 0 0 -.48.11 1.6 1.6 0 0 0 -.58 1.43 6.11 6.11 0 0 0 2.7 4.7 1.53 1.53 0 0 0 1.51.21 1.57 1.57 0 0 0 .58-1.43 6.08 6.08 0 0 0 -2.69-4.69 2.15 2.15 0 0 0 -1.04-.33z" fill="#082640" transform="translate(-318.81 -61.73)"/><path d="m418.11 165.05a6.46 6.46 0 0 0 .58-2.86v-71.7c0-3.88-2.35-8.39-5.24-10.07l-27-15.7a3.42 3.42 0 0 0 -3.23-.37 9.54 9.54 0 0 0 -2.93 1.89l1 1.51c0 .31-.05.62-.05 1v71.71c0 3.88 2.34 8.38 5.23 10.06l27 15.71.94 1.84a5.71 5.71 0 0 0 3.62-2.76s0 0 0 0l.07-.15z" fill="#082640" transform="translate(-318.81 -61.73)"/><path d="m413.18 166.43-26.93-15.65c-3-1.73-5.41-6.38-5.41-10.37v-71.71c0-.27 0-.54.05-.85l-1.09-1.66.2-.19a9.86 9.86 0 0 1 3.06-2 3.8 3.8 0 0 1 3.51.41l27 15.7c3 1.74 5.41 6.39 5.41 10.38v71.7a6.81 6.81 0 0 1 -.61 3l-.32-.16.32.17v.05l-.06.12a6 6 0 0 1 -3.87 2.94h-.26zm4.61-1.54a6.1 6.1 0 0 0 .54-2.7v-71.7c0-3.76-2.27-8.14-5.05-9.76l-27-15.7a3.06 3.06 0 0 0 -2.9-.36l-.18.08a8.86 8.86 0 0 0 -2.44 1.56l.68 1 .26-.08-.05.53a7.69 7.69 0 0 0 -.06.91v71.71c0 3.76 2.27 8.13 5.06 9.76l27 15.7h.09l.85 1.68a5.48 5.48 0 0 0 3.15-2.55 1 1 0 0 0 0-.1z" fill="#082640" transform="translate(-318.81 -61.73)"/><path d="m411.16 167.64-27-15.7c-2.89-1.68-5.23-6.19-5.23-10.07v-71.7c0-3.88 2.34-5.67 5.23-4l27 15.7c2.89 1.68 5.24 6.19 5.24 10.07v71.71c0 3.88-2.35 5.67-5.24 3.99z" fill="#fff" transform="translate(-318.81 -61.73)"/><path d="m411 168 .17-.31-.17.31-27-15.7c-3-1.74-5.41-6.39-5.41-10.38v-71.75c0-2.17.73-3.84 2-4.57a3.7 3.7 0 0 1 3.78.27l27 15.71c3 1.73 5.41 6.38 5.41 10.37v71.71c0 2.17-.72 3.83-2 4.57a3.12 3.12 0 0 1 -1.53.4 4.52 4.52 0 0 1 -2.25-.63zm-30.11-101.79c-1 .61-1.63 2.05-1.63 4v71.7c0 3.76 2.27 8.14 5.06 9.76l27 15.7a3 3 0 0 0 3.07.28c1-.61 1.63-2.05 1.63-4v-71.65c0-3.76-2.27-8.14-5.05-9.76l-27-15.7a3.88 3.88 0 0 0 -1.9-.58 2.34 2.34 0 0 0 -1.18.25z" fill="#082640" transform="translate(-318.81 -61.73)"/><path d="m409.53 83.2-26-15.08c-1.45-.85-2.64-.16-2.64 1.53v72.5a10.85 10.85 0 0 0 4.86 8.47l26 15.09c1.46.84 2.65.15 2.65-1.54v-72.5a10.89 10.89 0 0 0 -4.87-8.47z" fill="#f5f5f5" transform="translate(-318.81 -61.73)"/><path d="m411.59 166-26-15.08a11.2 11.2 0 0 1 -5-8.74v-72.53a1.92 1.92 0 0 1 3.11-1.8l26 15.08a11.18 11.18 0 0 1 5 8.74v72.5a2.17 2.17 0 0 1 -.93 2 1.72 1.72 0 0 1 -.84.22 2.66 2.66 0 0 1 -1.34-.39zm-29.74-97.8a1.59 1.59 0 0 0 -.63 1.45v72.5a10.52 10.52 0 0 0 4.71 8.2l26 15.09a1.32 1.32 0 0 0 2.18-1.27v-72.5a10.49 10.49 0 0 0 -4.71-8.2l-26-15.09a2.14 2.14 0 0 0 -1-.32 1.09 1.09 0 0 0 -.55.14z" fill="#082640" transform="translate(-318.81 -61.73)"/><path d="m413.79 165.38a1.8 1.8 0 0 1 -1.3-.29l-26-15.08a10.51 10.51 0 0 1 -4.71-8.21v-72.5a1.81 1.81 0 0 1 .43-1.31l.32-.3-.53-.19a2 2 0 0 0 -1.43 2.13v72.5a11.15 11.15 0 0 0 5 8.73l26 15.09a2.74 2.74 0 0 0 1.33.4 1.58 1.58 0 0 0 1.15-.46l.23-.77z" fill="#082640" transform="translate(-318.81 -61.73)"/><path d="m96.47 24.65 2.04-1.16-.13-.23-2.04 1.16z" fill="#d67205"/><path d="m384 66.06a4.56 4.56 0 0 1 2.11-1.21l-.06-.26a4.75 4.75 0 0 0 -2.24 1.29z" fill="#d67205" transform="translate(-318.81 -61.73)"/><path d="m385.06 66.68a4.56 4.56 0 0 1 2.1-1.21l-.06-.25a4.71 4.71 0 0 0 -2.23 1.28z" fill="#d67205" transform="translate(-318.81 -61.73)"/><path d="m97.46 27.38 2.1-1.04-.12-.24-2.1 1.05z" fill="#d67205"/><path d="m416.64 160.17a11.83 11.83 0 0 0 2.14-1.44l-.18-.19a12 12 0 0 1 -2.08 1.39z" fill="#d67205" transform="translate(-318.81 -61.73)"/><path d="m416.64 163.54a11.28 11.28 0 0 0 2.14-1.44l-.18-.19a12.26 12.26 0 0 1 -2.08 1.4z" fill="#d67205" transform="translate(-318.81 -61.73)"/><path d="m416.64 164.92a11.28 11.28 0 0 0 2.14-1.44l-.18-.19a12.26 12.26 0 0 1 -2.08 1.4z" fill="#d67205" transform="translate(-318.81 -61.73)"/><path d="m417.59 123.39h-.08c-.33.18-.59 0-.59-.45v-4.86a1.4 1.4 0 0 1 .59-1.12l.08-.05c.32-.19.59 0 .59.44v4.87a1.42 1.42 0 0 1 -.59 1.17z" fill="#082640" transform="translate(-318.81 -61.73)"/><path d="m417.06 123.58a.65.65 0 0 1 -.27-.59v-4.86a1.53 1.53 0 0 1 .65-1.23l.09-.05a.48.48 0 0 1 .51 0 .64.64 0 0 1 .27.58v4.87a1.53 1.53 0 0 1 -.65 1.23h-.09a.58.58 0 0 1 -.3.09.42.42 0 0 1 -.21-.04zm1-1.31v-4.87a.43.43 0 0 0 -.14-.36.28.28 0 0 0 -.25 0l-.09.06a1.27 1.27 0 0 0 -.52 1v4.9a.39.39 0 0 0 .14.36.25.25 0 0 0 .25 0h.09a1.27 1.27 0 0 0 .51-1.09z" fill="#d67205" transform="translate(-318.81 -61.73)"/><path d="m417.59 115.59h-.08c-.33.18-.59 0-.59-.45v-4.86a1.4 1.4 0 0 1 .59-1.12h.08c.32-.19.59 0 .59.44v4.87a1.42 1.42 0 0 1 -.59 1.12z" fill="#082640" transform="translate(-318.81 -61.73)"/><path d="m417.06 115.78a.65.65 0 0 1 -.27-.59v-4.86a1.53 1.53 0 0 1 .65-1.23h.09a.48.48 0 0 1 .51 0 .64.64 0 0 1 .27.58v4.87a1.53 1.53 0 0 1 -.65 1.23h-.09a.58.58 0 0 1 -.3.09.42.42 0 0 1 -.21-.09zm.6-6.5h-.09a1.27 1.27 0 0 0 -.52 1v4.86a.39.39 0 0 0 .14.36.25.25 0 0 0 .25 0h.09a1.27 1.27 0 0 0 .52-1v-4.9a.43.43 0 0 0 -.14-.36h-.09a.28.28 0 0 0 -.16.04z" fill="#d67205" transform="translate(-318.81 -61.73)"/><path d="m417.59 106.69h-.08c-.33.19-.59 0-.59-.44v-2.74a1.4 1.4 0 0 1 .59-1.12h.08c.32-.19.59 0 .59.44v2.74a1.42 1.42 0 0 1 -.59 1.12z" fill="#082640" transform="translate(-318.81 -61.73)"/><path d="m417.06 106.88a.63.63 0 0 1 -.27-.58v-2.74a1.53 1.53 0 0 1 .65-1.23h.09a.48.48 0 0 1 .51 0 .64.64 0 0 1 .27.58v2.74a1.53 1.53 0 0 1 -.65 1.23h-.09a.58.58 0 0 1 -.3.09.42.42 0 0 1 -.21-.09zm.6-4.37h-.09a1.27 1.27 0 0 0 -.52 1v2.74a.41.41 0 0 0 .14.36.28.28 0 0 0 .25 0l.09-.06a1.27 1.27 0 0 0 .52-1v-2.74a.43.43 0 0 0 -.14-.36h-.09a.28.28 0 0 0 -.16.06z" fill="#d67205" transform="translate(-318.81 -61.73)"/><path d="m417.51 102.45h.08a1 1 0 0 1 0 .26v2.73a1.39 1.39 0 0 1 -.58 1.12h-.09s0 0 0 0a.84.84 0 0 1 -.06-.24v-2.74a1.4 1.4 0 0 1 .65-1.13z" fill="#082640" transform="translate(-318.81 -61.73)"/><path d="m416.91 106.71-.09-.21a.84.84 0 0 1 0-.18v-2.74a1.53 1.53 0 0 1 .65-1.23l.24-.14.05.15a.94.94 0 0 1 0 .3v2.73a1.53 1.53 0 0 1 -.63 1.23l-.22.12zm.14-3.14v2.78a1.32 1.32 0 0 0 .46-1v-2.75a1.31 1.31 0 0 0 -.46.97z" fill="#d67205" transform="translate(-318.81 -61.73)"/><path d="m417.59 104.56h-.08c-.33.19-.59 0-.59-.44v-.61a1.4 1.4 0 0 1 .59-1.12h.08c.32-.19.59 0 .59.44v.61a1.42 1.42 0 0 1 -.59 1.12z" fill="#d67205" transform="translate(-318.81 -61.73)"/><path d="m417.06 104.76a.66.66 0 0 1 -.27-.59v-.61a1.53 1.53 0 0 1 .65-1.23h.09a.48.48 0 0 1 .51 0 .64.64 0 0 1 .27.58v.61a1.53 1.53 0 0 1 -.65 1.23l-.09.06a.67.67 0 0 1 -.3.08.54.54 0 0 1 -.21-.13zm.6-2.25h-.09a1.27 1.27 0 0 0 -.52 1v.61a.39.39 0 0 0 .14.36.25.25 0 0 0 .25 0h.09a1.29 1.29 0 0 0 .52-1v-.61a.43.43 0 0 0 -.14-.36h-.09a.28.28 0 0 0 -.16 0z" fill="#d67205" transform="translate(-318.81 -61.73)"/><path d="m95.84 23.54 2.08-1.24-.13-.23-2.08 1.25z" fill="#d67205"/><path d="m391 68.73-.11.06c-.41.25-.36.67.13.94l.18.08a1.79 1.79 0 0 0 1.62.06l.11-.07c.41-.24.36-.67-.12-.94l-.19-.08a1.79 1.79 0 0 0 -1.62-.05z" fill="#082640" transform="translate(-318.81 -61.73)"/><path d="m391.18 69.93-.2-.08a.83.83 0 0 1 -.47-.64.61.61 0 0 1 .35-.53l.11-.07a1.89 1.89 0 0 1 1.73 0l.2.09a.81.81 0 0 1 .47.64.61.61 0 0 1 -.34.52l-.11.07a1.58 1.58 0 0 1 -.8.19 1.88 1.88 0 0 1 -.94-.19zm-.08-1.09-.11.07a.35.35 0 0 0 -.22.29.56.56 0 0 0 .33.41l.19.09a1.67 1.67 0 0 0 1.49 0l.11-.06a.38.38 0 0 0 .22-.3.55.55 0 0 0 -.33-.41l-.19-.09a1.83 1.83 0 0 0 -.84-.2 1.3 1.3 0 0 0 -.65.2z" fill="#d67205" transform="translate(-318.81 -61.73)"/><path d="m393 69.75a.58.58 0 0 0 -.19-.15l-.19-.08a1.76 1.76 0 0 0 -1.62 0l-.11.06-.07.06a.46.46 0 0 1 .07-.8l.11-.06a1.79 1.79 0 0 1 1.62 0l.19.08c.47.26.55.64.19.89z" fill="#082640" transform="translate(-318.81 -61.73)"/><path d="m393 69.84-.17-.12-.19-.09a1.67 1.67 0 0 0 -1.49 0l-.11.07s0 0-.06 0l-.09.07-.08-.08a.65.65 0 0 1 -.24-.53.63.63 0 0 1 .34-.47l.11-.07a1.89 1.89 0 0 1 1.73 0l.2.09a.78.78 0 0 1 .46.6.54.54 0 0 1 -.25.5l-.08.07zm-1.85-1-.11.07a.37.37 0 0 0 -.21.26.33.33 0 0 0 .08.24l.11-.06a1.89 1.89 0 0 1 1.73.05l.2.08.13.09a.27.27 0 0 0 .07-.2.56.56 0 0 0 -.32-.39l-.19-.09a1.83 1.83 0 0 0 -.84-.2 1.3 1.3 0 0 0 -.7.15z" fill="#d67205" transform="translate(-318.81 -61.73)"/><path d="m390.47 64.88.35-.62-2.53-1.47a8 8 0 0 0 -9.64 1.3l.51.5a7.25 7.25 0 0 1 8.78-1.18z" fill="#082640" transform="translate(-318.81 -61.73)"/><path d="m77.17 6.39.35-.61-4.21-2.45-.35.62z" fill="#082640"/><path d="m83.36 103.38.36-.61-6.63-3.85-.36.62z" fill="#082640"/><path d="m73.66 98.02.36-.62-1.54-.89-.36.62z" fill="#082640"/><path d="m383.34 154.78.35-.62c-.05 0-5-2.9-6-8.23l-.7.14c1.11 5.66 6.14 8.59 6.35 8.71z" fill="#082640" transform="translate(-318.81 -61.73)"/><path d="m418.36 83.37.65-.29a10 10 0 0 0 -1.39-2.08l-.54.46a9.16 9.16 0 0 1 1.28 1.91z" fill="#082640" transform="translate(-318.81 -61.73)"/><path d="m92.75 78.64-26.82-14.76v-4.57l26.82 14.76z" fill="#fff"/><path d="m92.75 83.94-26.82-14.76v-4.56l26.82 14.75z" fill="#fff"/><path d="m92.75 89.24-26.82-14.76v-4.56l26.82 14.75z" fill="#fff"/><path d="m83.44 89.39-17.51-9.66v-4.56l17.51 9.66z" fill="#fff"/><g transform="translate(-318.81 -61.73)"><path d="m386 124.93a1.21 1.21 0 0 0 .38.13v.5a1.37 1.37 0 0 1 -.55-.2 1.31 1.31 0 0 1 -.53-.48 1.53 1.53 0 0 1 -.16-.69v-1.19l-.29-.16v-.28h.33l.18-.42.38.21v.52l.61.33v.5l-.61-.34v1.16a.41.41 0 0 0 .07.25.52.52 0 0 0 .19.16z" fill="#d67205"/><path d="m387.78 126.46a2.31 2.31 0 0 1 -.83-.78 2 2 0 0 1 -.29-1.08q0-.6.27-.78a.72.72 0 0 1 .76.08 1.94 1.94 0 0 1 .73.69 1.85 1.85 0 0 1 .25 1v.32l-1.41-.78a1.13 1.13 0 0 0 .15.52 1 1 0 0 0 .4.38 1.66 1.66 0 0 0 .37.16 1.15 1.15 0 0 0 .37.06v.51a1 1 0 0 1 -.33-.06 2.15 2.15 0 0 1 -.44-.24zm-.08-2.09q-.19-.11-.3 0a.45.45 0 0 0 -.13.31l.84.46a.93.93 0 0 0 -.11-.44.86.86 0 0 0 -.3-.33z" fill="#d67205"/><path d="m389.61 126.19-.71-1.57.68.37.43 1 .43-.53.67.38-.71.78.75 1.65-.68-.38-.46-1.08-.47.58-.67-.38z" fill="#d67205"/><path d="m392.4 128.48a1.31 1.31 0 0 0 .38.13v.49a1.38 1.38 0 0 1 -.55-.19 1.24 1.24 0 0 1 -.52-.49 1.35 1.35 0 0 1 -.16-.69v-1.16l-.29-.16v-.28h.33l.17-.41.38.21v.51l.62.34v.5l-.62-.34v1.16a.49.49 0 0 0 .07.25.61.61 0 0 0 .19.13z" fill="#d67205"/><path d="m395.19 130a1.24 1.24 0 0 0 .37.14v.49a1.39 1.39 0 0 1 -.54-.2 1.31 1.31 0 0 1 -.53-.48 1.41 1.41 0 0 1 -.16-.69v-1.16l-.29-.16v-.27h.33l.18-.42.38.21v.52l.61.34v.49l-.61-.34v1.17a.4.4 0 0 0 .07.24.52.52 0 0 0 .19.12z" fill="#d67205"/><path d="m397 131.54a2.31 2.31 0 0 1 -.83-.78 2 2 0 0 1 -.3-1.08.89.89 0 0 1 .28-.78c.18-.12.44-.09.76.09a1.84 1.84 0 0 1 .72.69 1.73 1.73 0 0 1 .26.94v.32l-1.41-.77a1.16 1.16 0 0 0 .15.52 1 1 0 0 0 .4.37 1.3 1.3 0 0 0 .37.16 1.15 1.15 0 0 0 .37.06v.51a1.47 1.47 0 0 1 -.34 0 3.69 3.69 0 0 1 -.43-.25zm-.08-2.08q-.19-.11-.3 0a.37.37 0 0 0 -.13.3l.84.47a.9.9 0 0 0 -.11-.44.86.86 0 0 0 -.3-.33z" fill="#d67205"/><path d="m398.83 131.27-.71-1.57.68.37.43 1 .42-.54.68.38-.71.79.75 1.64-.68-.37-.46-1.09-.47.58-.67-.38z" fill="#d67205"/><path d="m401.62 133.56a1.31 1.31 0 0 0 .38.13v.49a1.54 1.54 0 0 1 -1.07-.68 1.36 1.36 0 0 1 -.17-.69v-1.16l-.28-.16v-.28h.33l.17-.41.38.21v.51l.62.34v.5l-.62-.34v1.16a.49.49 0 0 0 .07.25.52.52 0 0 0 .19.13z" fill="#d67205"/><path d="m404.41 135.1a1.6 1.6 0 0 0 .37.13v.49a1.3 1.3 0 0 1 -.54-.19 1.41 1.41 0 0 1 -.53-.49 1.35 1.35 0 0 1 -.16-.69v-1.17l-.29-.15v-.28h.33l.17-.42.39.22v.45l.61.34v.49l-.61-.34v1.17a.45.45 0 0 0 .07.25.63.63 0 0 0 .19.19z" fill="#d67205"/><path d="m406.22 136.62a2.15 2.15 0 0 1 -.83-.78 2 2 0 0 1 -.3-1.07.9.9 0 0 1 .28-.79c.18-.12.44-.09.76.09a1.84 1.84 0 0 1 .72.69 1.74 1.74 0 0 1 .26 1v.24l-1.41-.78a1.16 1.16 0 0 0 .15.52 1 1 0 0 0 .4.37 1.72 1.72 0 0 0 .37.17 1.5 1.5 0 0 0 .37.05v.51a1 1 0 0 1 -.34-.05 3.06 3.06 0 0 1 -.43-.17zm-.09-2.08c-.12-.07-.22-.08-.29 0a.36.36 0 0 0 -.13.31l.84.46a.9.9 0 0 0 -.11-.44.81.81 0 0 0 -.31-.33z" fill="#d67205"/><path d="m408.05 136.35-.71-1.57.68.37.42 1 .43-.53.68.37-.71.79.75 1.64-.68-.37-.47-1.08-.46.57-.68-.37z" fill="#d67205"/><path d="m410.84 138.64a1.31 1.31 0 0 0 .38.14v.49a1.43 1.43 0 0 1 -.55-.2 1.28 1.28 0 0 1 -.52-.48 1.41 1.41 0 0 1 -.17-.69v-1.17l-.28-.16v-.28h.33l.17-.42.38.21v.52l.61.33v.5l-.61-.34v1.17a.4.4 0 0 0 .07.24.52.52 0 0 0 .19.14z" fill="#d67205"/><path d="m386 130.24a1.21 1.21 0 0 0 .38.13v.5a1.37 1.37 0 0 1 -.55-.2 1.31 1.31 0 0 1 -.53-.48 1.53 1.53 0 0 1 -.16-.69v-1.17l-.29-.16v-.28h.33l.18-.42.38.21v.52l.61.33v.5l-.61-.34v1.17a.4.4 0 0 0 .07.24.52.52 0 0 0 .19.14z" fill="#d67205"/><path d="m387.78 131.77a2.31 2.31 0 0 1 -.78-.77 2 2 0 0 1 -.29-1.08q0-.6.27-.78a.75.75 0 0 1 .76.08 1.94 1.94 0 0 1 .73.69 1.85 1.85 0 0 1 .25.95v.32l-1.41-.78a1.2 1.2 0 0 0 .15.53 1.1 1.1 0 0 0 .4.37 1.66 1.66 0 0 0 .37.16 1.15 1.15 0 0 0 .37.06v.48a1 1 0 0 1 -.33-.06 2.15 2.15 0 0 1 -.49-.17zm-.08-2.09q-.19-.1-.3 0a.45.45 0 0 0 -.13.31l.84.46a.93.93 0 0 0 -.11-.45.86.86 0 0 0 -.3-.32z" fill="#d67205"/><path d="m389.61 131.5-.71-1.57.68.37.43 1 .43-.53.67.38-.71.78.75 1.65-.68-.38-.46-1.08-.47.58-.67-.38z" fill="#d67205"/><path d="m392.4 133.79a1.31 1.31 0 0 0 .38.13v.49a1.38 1.38 0 0 1 -.55-.19 1.24 1.24 0 0 1 -.52-.49 1.35 1.35 0 0 1 -.16-.69v-1.16l-.29-.16v-.28h.33l.17-.41.38.21v.51l.62.34v.5l-.62-.34v1.16a.49.49 0 0 0 .07.25.61.61 0 0 0 .19.13z" fill="#d67205"/><path d="m395.19 135.33a1.6 1.6 0 0 0 .37.13v.54a1.52 1.52 0 0 1 -.54-.19 1.22 1.22 0 0 1 -.69-1.18v-1.17l-.29-.15v-.31h.33l.18-.42.38.21v.52l.61.34v.49l-.61-.34v1.17a.4.4 0 0 0 .07.24.66.66 0 0 0 .19.12z" fill="#d67205"/><path d="m397 136.85a2.31 2.31 0 0 1 -.83-.78 2 2 0 0 1 -.3-1.08.89.89 0 0 1 .28-.78c.18-.12.44-.09.76.09a1.84 1.84 0 0 1 .72.69 1.73 1.73 0 0 1 .26.94v.32l-1.41-.77a1.16 1.16 0 0 0 .15.52 1 1 0 0 0 .4.37 1.3 1.3 0 0 0 .37.16 1.15 1.15 0 0 0 .37.06v.51a1.47 1.47 0 0 1 -.34 0 3.69 3.69 0 0 1 -.43-.25zm-.08-2.08q-.19-.11-.3 0a.37.37 0 0 0 -.13.3l.84.47a.9.9 0 0 0 -.11-.44.86.86 0 0 0 -.3-.33z" fill="#d67205"/><path d="m398.83 136.58-.71-1.57.68.37.43 1 .42-.54.68.38-.71.79.75 1.64-.68-.37-.46-1.09-.47.58-.67-.38z" fill="#d67205"/><path d="m401.62 138.87a1.31 1.31 0 0 0 .38.13v.49a1.54 1.54 0 0 1 -1.07-.68 1.36 1.36 0 0 1 -.17-.69v-1.12l-.28-.16v-.28h.33l.17-.41.38.21v.51l.62.34v.5l-.62-.34v1.16a.49.49 0 0 0 .07.25.52.52 0 0 0 .19.09z" fill="#d67205"/><path d="m404.41 140.41a1.6 1.6 0 0 0 .37.13v.46a1.3 1.3 0 0 1 -.54-.19 1.33 1.33 0 0 1 -.53-.49 1.35 1.35 0 0 1 -.16-.69v-1.17l-.29-.15v-.28h.33l.17-.42.39.22v.51l.61.34v.49l-.61-.34v1.17a.45.45 0 0 0 .07.25.63.63 0 0 0 .19.16z" fill="#d67205"/><path d="m406.22 141.93a2.15 2.15 0 0 1 -.83-.78 2 2 0 0 1 -.3-1.07.9.9 0 0 1 .28-.79c.18-.12.44-.09.76.09a1.84 1.84 0 0 1 .72.69 1.74 1.74 0 0 1 .26 1v.32l-1.41-.78a1.16 1.16 0 0 0 .15.52 1 1 0 0 0 .4.37 1.72 1.72 0 0 0 .37.17 1.5 1.5 0 0 0 .37 0v.51a1 1 0 0 1 -.34-.05 3.06 3.06 0 0 1 -.43-.2zm-.09-2.08c-.12-.07-.22-.08-.29 0a.36.36 0 0 0 -.13.31l.84.46a.9.9 0 0 0 -.11-.44.81.81 0 0 0 -.31-.33z" fill="#d67205"/><path d="m408.05 141.66-.71-1.57.68.37.42 1 .43-.53.68.37-.71.79.75 1.64-.68-.37-.47-1.08-.46.57-.68-.37z" fill="#d67205"/><path d="m410.84 144a1.31 1.31 0 0 0 .38.14v.49a1.43 1.43 0 0 1 -.55-.2 1.28 1.28 0 0 1 -.52-.48 1.41 1.41 0 0 1 -.17-.69v-1.26l-.28-.16v-.27h.33l.17-.42.38.21v.52l.61.33v.5l-.61-.34v1.17a.4.4 0 0 0 .07.24.52.52 0 0 0 .19.22z" fill="#d67205"/><path d="m386 135.55a1.21 1.21 0 0 0 .38.13v.5a1.37 1.37 0 0 1 -.55-.2 1.31 1.31 0 0 1 -.53-.48 1.53 1.53 0 0 1 -.16-.69v-1.17l-.29-.16v-.28h.33l.18-.42.38.21v.52l.61.33v.5l-.61-.34v1.16a.41.41 0 0 0 .07.25.52.52 0 0 0 .19.14z" fill="#d67205"/><path d="m387.78 137.08a2.31 2.31 0 0 1 -.83-.78 2 2 0 0 1 -.29-1.08q0-.6.27-.78a.72.72 0 0 1 .76.08 1.94 1.94 0 0 1 .73.69 1.85 1.85 0 0 1 .25.95v.32l-1.41-.78a1.13 1.13 0 0 0 .15.52 1 1 0 0 0 .4.38 1.66 1.66 0 0 0 .37.16 1.15 1.15 0 0 0 .37.06v.51a1 1 0 0 1 -.33-.06 2.15 2.15 0 0 1 -.44-.19zm-.08-2.08q-.19-.11-.3 0a.45.45 0 0 0 -.13.31l.84.46a.93.93 0 0 0 -.11-.44.86.86 0 0 0 -.3-.33z" fill="#d67205"/><path d="m389.61 136.81-.71-1.57.68.37.43 1 .43-.53.67.38-.71.78.75 1.65-.68-.38-.46-1.08-.47.58-.67-.38z" fill="#d67205"/><path d="m392.4 139.1a1.31 1.31 0 0 0 .38.13v.49a1.38 1.38 0 0 1 -.55-.19 1.24 1.24 0 0 1 -.52-.49 1.35 1.35 0 0 1 -.16-.69v-1.16l-.29-.16v-.28h.33l.17-.41.38.21v.45l.62.34v.5l-.62-.34v1.16a.49.49 0 0 0 .07.25.61.61 0 0 0 .19.19z" fill="#d67205"/><path d="m395.19 140.63a1.24 1.24 0 0 0 .37.14v.49a1.39 1.39 0 0 1 -.54-.2 1.31 1.31 0 0 1 -.53-.48 1.41 1.41 0 0 1 -.16-.69v-1.17l-.29-.15v-.28h.33l.18-.42.38.21v.52l.61.34v.49l-.61-.34v1.17a.4.4 0 0 0 .07.24.52.52 0 0 0 .19.13z" fill="#d67205"/><path d="m397 142.16a2.31 2.31 0 0 1 -.83-.78 2 2 0 0 1 -.3-1.08.89.89 0 0 1 .28-.78c.18-.12.44-.09.76.09a1.84 1.84 0 0 1 .72.69 1.73 1.73 0 0 1 .26.94v.32l-1.41-.77a1.16 1.16 0 0 0 .15.52 1 1 0 0 0 .4.37 1.3 1.3 0 0 0 .37.16 1.15 1.15 0 0 0 .37.06v.51a1.47 1.47 0 0 1 -.34 0 3.69 3.69 0 0 1 -.43-.25zm-.08-2.08q-.19-.11-.3 0a.37.37 0 0 0 -.13.3l.84.47a.9.9 0 0 0 -.11-.44.86.86 0 0 0 -.3-.33z" fill="#d67205"/><path d="m398.83 141.89-.71-1.57.68.37.43 1 .42-.54.68.38-.71.79.75 1.64-.68-.37-.46-1.09-.47.58-.67-.38z" fill="#d67205"/><path d="m401.62 144.18a1.31 1.31 0 0 0 .38.13v.49a1.54 1.54 0 0 1 -1.07-.68 1.36 1.36 0 0 1 -.17-.69v-1.16l-.28-.16v-.28h.33l.17-.41.38.21v.51l.62.34v.5l-.62-.34v1.16a.49.49 0 0 0 .07.25.52.52 0 0 0 .19.13z" fill="#d67205"/><path d="m404.41 145.72a1.6 1.6 0 0 0 .37.13v.49a1.3 1.3 0 0 1 -.54-.19 1.33 1.33 0 0 1 -.53-.49 1.35 1.35 0 0 1 -.16-.69v-1.17l-.29-.15v-.28h.33l.17-.42.39.22v.51l.61.34v.49l-.61-.34v1.17a.45.45 0 0 0 .07.25.63.63 0 0 0 .19.13z" fill="#d67205"/><path d="m406.22 147.24a2.15 2.15 0 0 1 -.83-.78 2 2 0 0 1 -.3-1.07.9.9 0 0 1 .28-.79c.18-.12.44-.09.76.09a1.84 1.84 0 0 1 .72.69 1.74 1.74 0 0 1 .26 1v.32l-1.41-.78a1.16 1.16 0 0 0 .15.52 1 1 0 0 0 .4.37 1.72 1.72 0 0 0 .37.17 1.5 1.5 0 0 0 .37 0v.51a1 1 0 0 1 -.34-.05 3.06 3.06 0 0 1 -.43-.2zm-.09-2.08c-.12-.07-.22-.08-.29 0a.36.36 0 0 0 -.13.31l.84.46a.9.9 0 0 0 -.11-.44.81.81 0 0 0 -.31-.33z" fill="#d67205"/><path d="m408.05 147-.71-1.57.68.37.42 1 .43-.53.68.37-.71.79.75 1.64-.68-.37-.47-1.08-.46.57-.68-.37z" fill="#d67205"/><path d="m410.84 149.26a1.31 1.31 0 0 0 .38.14v.49a1.43 1.43 0 0 1 -.55-.2 1.28 1.28 0 0 1 -.52-.48 1.41 1.41 0 0 1 -.17-.69v-1.17l-.28-.16v-.28h.33l.17-.42.38.21v.52l.61.33v.5l-.61-.34v1.17a.4.4 0 0 0 .07.24.52.52 0 0 0 .19.14z" fill="#d67205"/><path d="m386 140.86a1.51 1.51 0 0 0 .38.14v.49a1.37 1.37 0 0 1 -.55-.2 1.31 1.31 0 0 1 -.53-.48 1.53 1.53 0 0 1 -.16-.69v-1.12l-.29-.16v-.28h.33l.18-.42.38.21v.52l.61.33v.5l-.61-.34v1.17a.4.4 0 0 0 .07.24.52.52 0 0 0 .19.09z" fill="#d67205"/><path d="m387.78 142.39a2.31 2.31 0 0 1 -.83-.78 2 2 0 0 1 -.29-1.08q0-.6.27-.78a.75.75 0 0 1 .76.08 1.94 1.94 0 0 1 .73.69 1.85 1.85 0 0 1 .25.95v.32l-1.41-.78a1.2 1.2 0 0 0 .15.53 1.1 1.1 0 0 0 .4.37 1.66 1.66 0 0 0 .37.16 1.15 1.15 0 0 0 .37.06v.51a1 1 0 0 1 -.33-.06 2.15 2.15 0 0 1 -.44-.19zm-.08-2.09q-.19-.11-.3 0a.45.45 0 0 0 -.13.31l.84.46a.93.93 0 0 0 -.11-.44.86.86 0 0 0 -.3-.33z" fill="#d67205"/><path d="m389.61 142.12-.71-1.57.68.37.43 1 .43-.53.67.38-.71.78.75 1.65-.68-.38-.46-1.08-.47.58-.67-.38z" fill="#d67205"/><path d="m392.4 144.41a1.31 1.31 0 0 0 .38.13v.46a1.38 1.38 0 0 1 -.55-.19 1.24 1.24 0 0 1 -.52-.49 1.35 1.35 0 0 1 -.16-.69v-1.13l-.29-.16v-.28h.33l.17-.41.38.21v.51l.62.34v.5l-.62-.34v1.13a.49.49 0 0 0 .07.25.61.61 0 0 0 .19.16z" fill="#d67205"/><path d="m395.19 146a1.6 1.6 0 0 0 .37.13v.49a1.52 1.52 0 0 1 -.54-.19 1.22 1.22 0 0 1 -.69-1.18v-1.25l-.29-.15v-.28h.33l.18-.42.38.21v.52l.61.34v.49l-.61-.34v1.17a.4.4 0 0 0 .07.24.66.66 0 0 0 .19.22z" fill="#d67205"/><path d="m397 147.47a2.31 2.31 0 0 1 -.83-.78 2 2 0 0 1 -.3-1.08.89.89 0 0 1 .28-.78c.18-.12.44-.09.76.09a1.84 1.84 0 0 1 .72.69 1.73 1.73 0 0 1 .26.94v.32l-1.41-.77a1.16 1.16 0 0 0 .15.52 1 1 0 0 0 .4.37 1.3 1.3 0 0 0 .37.16 1.15 1.15 0 0 0 .37.06v.51a1.47 1.47 0 0 1 -.34-.05 3.69 3.69 0 0 1 -.43-.2zm-.08-2.08q-.19-.1-.3 0a.37.37 0 0 0 -.13.3l.84.47a.9.9 0 0 0 -.11-.44.86.86 0 0 0 -.3-.33z" fill="#d67205"/><path d="m398.83 147.2-.71-1.57.68.37.43 1 .42-.54.68.38-.71.79.75 1.64-.68-.37-.46-1.09-.47.58-.67-.38z" fill="#d67205"/><path d="m401.62 149.49a1.31 1.31 0 0 0 .38.13v.49a1.54 1.54 0 0 1 -1.07-.68 1.36 1.36 0 0 1 -.17-.69v-1.16l-.28-.16v-.28h.33l.17-.41.38.21v.51l.62.34v.5l-.62-.34v1.16a.49.49 0 0 0 .07.25.52.52 0 0 0 .19.13z" fill="#d67205"/><path d="m404.41 151a1.6 1.6 0 0 0 .37.13v.49a1.3 1.3 0 0 1 -.54-.19 1.33 1.33 0 0 1 -.53-.49 1.35 1.35 0 0 1 -.16-.69v-1.17l-.29-.15v-.28h.33l.17-.42.39.22v.55l.61.34v.49l-.61-.34v1.17a.45.45 0 0 0 .07.25.63.63 0 0 0 .19.09z" fill="#082640"/><path d="m406.22 152.55a2.15 2.15 0 0 1 -.83-.78 2 2 0 0 1 -.3-1.07.9.9 0 0 1 .28-.79c.18-.12.44-.09.76.09a1.84 1.84 0 0 1 .72.69 1.74 1.74 0 0 1 .26.95v.36l-1.41-.78a1.16 1.16 0 0 0 .15.52 1 1 0 0 0 .4.37 1.72 1.72 0 0 0 .37.17 1.5 1.5 0 0 0 .37 0v.51a1 1 0 0 1 -.34-.05 3.06 3.06 0 0 1 -.43-.19zm-.09-2.08c-.12-.07-.22-.08-.29 0a.36.36 0 0 0 -.13.31l.84.46a.9.9 0 0 0 -.11-.44.81.81 0 0 0 -.31-.33z" fill="#082640"/><path d="m408.05 152.28-.71-1.57.68.37.42 1 .43-.53.68.37-.71.79.75 1.64-.68-.37-.47-1.08-.46.57-.68-.37z" fill="#082640"/><path d="m410.84 154.57a1.31 1.31 0 0 0 .38.14v.49a1.43 1.43 0 0 1 -.55-.2 1.28 1.28 0 0 1 -.52-.48 1.41 1.41 0 0 1 -.17-.69v-1.17l-.28-.16v-.27h.33l.17-.42.38.21v.52l.61.33v.5l-.61-.34v1.17a.4.4 0 0 0 .07.24.52.52 0 0 0 .19.13z" fill="#082640"/><path d="m396.48 120.23-.46.26a.19.19 0 0 1 -.18 0l-.43-.26c-.06 0-.06-.08 0-.1l.46-.27a.21.21 0 0 1 .19 0l.43.25s.04.09-.01.12z" fill="#082640"/><path d="m397.55 120.85-.46.26a.19.19 0 0 1 -.18 0l-.43-.26c-.06 0-.06-.07 0-.1l.46-.27a.21.21 0 0 1 .19 0l.43.25s.04.09-.01.12z" fill="#082640"/><path d="m396.43 121.5-.46.27a.21.21 0 0 1 -.19 0l-.43-.25c-.05 0-.06-.08 0-.11l.46-.26a.19.19 0 0 1 .18 0l.43.25c.05.03.05.07.01.1z" fill="#082640"/><path d="m398.68 121.5-.46.27a.17.17 0 0 1 -.18 0l-.43-.25c-.06 0-.06-.08 0-.1l.46-.27a.19.19 0 0 1 .19 0l.43.25c.03.03.04.08-.01.1z" fill="#082640"/><path d="m397.56 122.16-.46.27a.25.25 0 0 1 -.19 0l-.43-.25c-.05 0-.06-.08 0-.11l.46-.27a.23.23 0 0 1 .18 0l.43.25c.05.03.05.08.01.11z" fill="#082640"/><path d="m399.75 122.13-.46.26a.17.17 0 0 1 -.18 0l-.43-.25c-.06 0-.06-.08 0-.1l.46-.27a.21.21 0 0 1 .19 0l.43.25c.03.03.04.08-.01.11z" fill="#082640"/><path d="m398.63 122.78-.46.27a.25.25 0 0 1 -.19 0l-.43-.25c-.05 0-.06-.08 0-.11l.46-.27a.23.23 0 0 1 .18 0l.43.25c.05.03.05.08.01.11z" fill="#082640"/><path d="m399.7 123.4-.46.27a.21.21 0 0 1 -.19 0l-.43-.25c-.06 0-.06-.08 0-.11l.46-.26a.19.19 0 0 1 .18 0l.43.25c.05.03.05.07.01.1z" fill="#082640"/><path d="m407.41 120.3-19-11.06a3.68 3.68 0 0 1 -1.52-2.92v-25.26c0-1.13.68-1.65 1.52-1.16l19 11.06a3.65 3.65 0 0 1 1.52 2.92v25.26c0 1.13-.68 1.65-1.52 1.16z" fill="#fff"/><path d="m408 120.82a1.48 1.48 0 0 1 -.77-.23l-19-11a4 4 0 0 1 -1.69-3.22v-25.31a1.7 1.7 0 0 1 .69-1.54 1.33 1.33 0 0 1 1.34.08l19 11.06a4 4 0 0 1 1.69 3.22v25.26a1.68 1.68 0 0 1 -.7 1.53 1.09 1.09 0 0 1 -.56.15zm-20.23-40.77a.46.46 0 0 0 -.22.06 1.09 1.09 0 0 0 -.36 1v25.26a3.35 3.35 0 0 0 1.36 2.63l19 11.06a.7.7 0 0 0 .66.08 1.1 1.1 0 0 0 .35-1v-25.26a3.37 3.37 0 0 0 -1.35-2.63l-19-11.06a.92.92 0 0 0 -.44-.14z" fill="#082640"/><path d="m406.68 114.16-17.57-10.16a1.47 1.47 0 0 1 -.61-1.18v-20.13c0-.45.27-.66.61-.46l17.57 10.2a1.52 1.52 0 0 1 .61 1.18v20.08c0 .45-.29.66-.61.47z" fill="#d67205"/><path d="m392.64 102.49c0-.14 0-.23.1-.26a.29.29 0 0 1 .28.06.66.66 0 0 1 .28.27.76.76 0 0 1 .1.37.28.28 0 0 1 -.1.25c-.07 0-.16 0-.28-.05a.81.81 0 0 1 -.28-.27.79.79 0 0 1 -.1-.37z" fill="#082640"/><path d="m393.8 104.74a2.07 2.07 0 0 1 -.43-.31v-.6a2 2 0 0 0 .3.23q.16.09.24 0a.35.35 0 0 0 .08-.27v-3l.65.38v3.09c0 .3-.07.48-.22.56s-.35.08-.62-.08zm.16-4.64c0-.24.12-.3.36-.16a.63.63 0 0 1 .35.58c0 .12 0 .19-.08.22s-.15 0-.27-.06a.63.63 0 0 1 -.32-.58z" fill="#082640"/><path d="m396.65 105.22a1.65 1.65 0 0 1 -.66-.74v.43 1.09l-.66-.38v-4l.53.31.1.41c.15-.19.38-.19.68 0a1.68 1.68 0 0 1 .66.77 2.86 2.86 0 0 1 .24 1.2 1.92 1.92 0 0 1 -.11.71.51.51 0 0 1 -.32.32.7.7 0 0 1 -.46-.12zm-.19-2.39c-.17-.09-.28-.11-.36 0a.77.77 0 0 0 -.11.5v.08a1.73 1.73 0 0 0 .11.71.9.9 0 0 0 .36.41c.3.17.44 0 .44-.59a1.91 1.91 0 0 0 -.1-.68.84.84 0 0 0 -.34-.43z" fill="#082640"/><path d="m399.2 106.71a2.41 2.41 0 0 1 -1.23-2.14c0-.47.1-.77.3-.91s.48-.11.83.1a2 2 0 0 1 .79.8 2.14 2.14 0 0 1 .29 1.09v.35l-1.55-.9a1.23 1.23 0 0 0 .17.6 1.13 1.13 0 0 0 .43.44 2.05 2.05 0 0 0 .41.18 1.76 1.76 0 0 0 .4.07v.61a1 1 0 0 1 -.36-.07 2.74 2.74 0 0 1 -.48-.22zm-.09-2.41q-.21-.12-.33 0c-.08 0-.12.17-.14.35l.92.54a1.07 1.07 0 0 0 -.12-.51.86.86 0 0 0 -.33-.38z" fill="#082640"/><path d="m402.8 106v.38l-.38-.1a1.2 1.2 0 0 1 .11.48q0 .45-.27.54a1 1 0 0 1 -.75-.18l-.12-.08-.1-.07a.14.14 0 0 0 -.1.14c0 .11.12.24.36.38l.41.23a1.89 1.89 0 0 1 .6.55 1.25 1.25 0 0 1 .21.7c0 .33-.12.51-.35.55a1.63 1.63 0 0 1 -1-.31 2.67 2.67 0 0 1 -.77-.65 1.25 1.25 0 0 1 -.26-.72.39.39 0 0 1 .13-.35.49.49 0 0 1 .4 0 1 1 0 0 1 -.17-.26.71.71 0 0 1 -.08-.29.27.27 0 0 1 .08-.22.45.45 0 0 1 .23-.07 1.5 1.5 0 0 1 -.3-.48 1.55 1.55 0 0 1 -.11-.56c0-.3.08-.49.25-.56a.9.9 0 0 1 .73.18 2 2 0 0 1 .24.16l.18.13zm-1.85 2.1a.51.51 0 0 0 .13.33 1.11 1.11 0 0 0 .36.3 1.48 1.48 0 0 0 .55.21c.13 0 .2-.06.2-.19a.42.42 0 0 0 -.12-.29 1.4 1.4 0 0 0 -.36-.27l-.34-.2a.48.48 0 0 0 -.3-.08.17.17 0 0 0 -.07.15zm.23-2.13a.91.91 0 0 0 .09.41.63.63 0 0 0 .27.29c.13.08.22.08.27 0a.43.43 0 0 0 .09-.31.75.75 0 0 0 -.36-.71c-.24-.15-.36-.05-.36.28z" fill="#082640"/><path d="m403.32 95.63-10.82-6.29a1.72 1.72 0 0 1 -.71-1.36c0-.52.32-.77.71-.54l10.82 6.29a1.71 1.71 0 0 1 .71 1.36c-.03.52-.32.76-.71.54z" fill="#fff"/><path d="m403.6 96.05a.86.86 0 0 1 -.45-.13l-10.82-6.29a2 2 0 0 1 -.88-1.65 1 1 0 0 1 .42-.87.77.77 0 0 1 .8 0l10.82 6.28a2.07 2.07 0 0 1 .87 1.66 1 1 0 0 1 -.36.95.73.73 0 0 1 -.4.05zm-11.38-8.35s-.07.1-.07.28a1.35 1.35 0 0 0 .54 1.06l10.82 6.29a.24.24 0 0 0 .12 0s.08-.1.08-.28a1.39 1.39 0 0 0 -.54-1.07l-10.82-6.28a.16.16 0 0 0 -.13 0z" fill="#082640"/><path d="m403.32 99.5-10.82-6.28a1.72 1.72 0 0 1 -.71-1.36c0-.53.32-.77.71-.54l10.82 6.29a1.69 1.69 0 0 1 .68 1.39c0 .49-.29.73-.68.5z" fill="#fff"/><path d="m403.6 99.93a1 1 0 0 1 -.45-.13l-10.82-6.29a2.06 2.06 0 0 1 -.88-1.65 1 1 0 0 1 .42-.87.77.77 0 0 1 .8 0l10.82 6.29a2.05 2.05 0 0 1 .87 1.65 1 1 0 0 1 -.41.87.64.64 0 0 1 -.35.13zm-11.38-8.36a.46.46 0 0 0 -.07.29 1.37 1.37 0 0 0 .54 1.06l10.82 6.29a.24.24 0 0 0 .12 0s.08-.11.08-.29a1.37 1.37 0 0 0 -.54-1.06l-10.82-6.29a.24.24 0 0 0 -.13 0z" fill="#082640"/><path d="m403.32 103.38-10.82-6.29a1.69 1.69 0 0 1 -.71-1.36c0-.52.32-.76.71-.53l10.82 6.28a1.72 1.72 0 0 1 .71 1.36c-.03.52-.32.77-.71.54z" fill="#fff"/><path d="m403.6 103.8a.86.86 0 0 1 -.45-.13l-10.82-6.28a2.08 2.08 0 0 1 -.88-1.66 1 1 0 0 1 .42-.87.8.8 0 0 1 .8 0l10.82 6.29a2 2 0 0 1 .87 1.65 1 1 0 0 1 -.41.87.73.73 0 0 1 -.35.13zm-11.38-8.35a.42.42 0 0 0 -.07.28 1.39 1.39 0 0 0 .54 1.07l10.82 6.28h.12s.08-.1.08-.28a1.35 1.35 0 0 0 -.54-1.06l-10.82-6.29a.24.24 0 0 0 -.13 0z" fill="#082640"/><path d="m332.84 83.81v-5.38c0-4.46 4.21-8.08 9.4-8.08s9.41 3.62 9.41 8.08v5.38a.48.48 0 0 1 -.5.43h-.57a.5.5 0 0 1 -.46-.26l-.13-.26a.24.24 0 0 0 -.27-.11.21.21 0 0 0 -.19.2.47.47 0 0 1 -.5.43h-15.69a.47.47 0 0 1 -.5-.43z" fill="#2f2e41"/><path d="m352.59 156.86h3.25l1.55-10.77h-4.8z" fill="#ffb8b8"/><path d="m362.1 159.45h-10.21v-3.39h6.27a3.69 3.69 0 0 1 3.94 3.39z" fill="#082640"/><path d="m328.48 156.86h3.25l1.54-10.77h-4.79z" fill="#ffb8b8"/><path d="m338 159.45h-10.22v-3.39h6.27a3.69 3.69 0 0 1 3.94 3.39z" fill="#082640"/><path d="m347.3 147.2-6.3-21.94a.9.9 0 0 0 -1-.6.85.85 0 0 0 -.84.75l-1.4 21.46a1 1 0 0 1 -.41.72 1.3 1.3 0 0 1 -.88.24l-11.16-.76a1.09 1.09 0 0 1 -1.1-1c.14-4.72 2.95-37.67 11-44.87a1.32 1.32 0 0 1 1.11-.29l10.68 2.46a1.13 1.13 0 0 1 .91.77l11.84 40.86a.9.9 0 0 1 -.17.79 1.17 1.17 0 0 1 -.77.44l-10.12 1.77a1.2 1.2 0 0 1 -1.39-.76z" fill="#082640"/></g><ellipse cx="24.72" cy="16.8" fill="#ffb8b8" rx="6.51" ry="5.59"/><path d="m346.91 104-11.24-2.17a1.08 1.08 0 0 1 -.92-.9l-.75-6.68c-.44-3.68 2.4-7.06 6.59-7.86h.27a9.21 9.21 0 0 1 7.78 2.1 6.59 6.59 0 0 1 2.09 6.89l-2.38 7.9a1.17 1.17 0 0 1 -1.15.77 1.15 1.15 0 0 1 -.26 0z" fill="#d67205" transform="translate(-318.81 -61.73)"/><path d="m319.05 114.07a1.81 1.81 0 0 1 0-1.75 2.34 2.34 0 0 1 1.54-1.15l8.13-14.29 4.2 2.69-9.28 13.16a2.06 2.06 0 0 1 -1.58 2.4 2.58 2.58 0 0 1 -3-1.06z" fill="#ffb8b8" transform="translate(-318.81 -61.73)"/><path d="m374.37 106.38a2 2 0 0 0 -.86-1.59 2.74 2.74 0 0 0 -2-.45l-14.62-9.75-2.39 4 15.07 8.3a2.44 2.44 0 0 0 2.65 1.57 2.23 2.23 0 0 0 2.12-2.08z" fill="#ffb8b8" transform="translate(-318.81 -61.73)"/><path d="m332.52 100.71a1.12 1.12 0 0 1 -.48-.1l-4.4-2.08a.79.79 0 0 1 -.45-1 .36.36 0 0 1 0-.09l4.44-7.92a3.66 3.66 0 0 1 2-1.67 4.31 4.31 0 0 1 3.85.46 3.25 3.25 0 0 1 1 1 2.85 2.85 0 0 1 0 3.1l-5.06 7.86a1 1 0 0 1 -.9.44z" fill="#d67205" transform="translate(-318.81 -61.73)"/><path d="m354.68 99.32-8.57-5.15a3.13 3.13 0 0 1 -1.62-2.76 2.74 2.74 0 0 1 .36-1.31 3.86 3.86 0 0 1 3.22-1.86 4.36 4.36 0 0 1 2.63.74l8.05 5.44a.78.78 0 0 1 .26 1.06l-.06.09-2.89 3.54a1.1 1.1 0 0 1 -1.37.21z" fill="#d67205" transform="translate(-318.81 -61.73)"/><path d="m336 76.61c0-3.21 3-5.81 6.75-5.81s6.76 2.6 6.76 5.81v.39h-1.75a.48.48 0 0 1 -.36-.16l-.32-.38a.23.23 0 0 0 -.22-.06.16.16 0 0 0 -.11.17.38.38 0 0 1 -.11.3.51.51 0 0 1 -.34.13h-10.3z" fill="#2f2e41" transform="translate(-318.81 -61.73)"/></svg>