<svg xmlns="http://www.w3.org/2000/svg" width="22" height="22" viewBox="0 0 22 22"><defs><style>.a{fill:#8e8e8e;}</style></defs><g transform="translate(0 0)"><path class="a" d="M0,20.05A2.068,2.068,0,0,0,2.156,22H14.813a2.1,2.1,0,0,0,2.11-1.623,2.018,2.018,0,0,0,1.795-1.925V9.669h1.029a.381.381,0,0,0,.2-.054l1.882-1.167a.345.345,0,0,0,0-.593L19.949,6.676a.394.394,0,0,0-.2-.067H18.718V4.673a.433.433,0,0,0-.165-.305L14.269.2a.364.364,0,0,0-.087-.085L14.17.1a.379.379,0,0,0-.265-.1H3.92A2.1,2.1,0,0,0,1.8,1.623,2.025,2.025,0,0,0,0,3.548ZM6.317,8.959V7.318H19.368V8.959Zm13.795-.292V7.638l.829.515Zm-5.759-7.39L17.433,4.3H14.849a.5.5,0,0,1-.347-.129.454.454,0,0,1-.149-.326ZM3.92.709h9.689V3.848a1.2,1.2,0,0,0,1.24,1.164h3.126v1.6H5.964a.4.4,0,0,0-.39.375v.045L4.468,7.008h0a.373.373,0,0,0-.372.366L4.1,8.918a.364.364,0,0,0,.372.352h1.1v.052a.374.374,0,0,0,.39.347h.785l-.005.532a.762.762,0,0,0,.222.547.7.7,0,0,0,.481.207h4.512a.355.355,0,1,0,0-.71H7.488c0-.044,0-.022,0-.028l.005-.549H17.975v8.783a1.328,1.328,0,0,1-1.4,1.241H3.92a1.341,1.341,0,0,1-1.412-1.241V2.006c0-.018.012-.036.012-.055a.323.323,0,0,0,0-.046,1.338,1.338,0,0,1,1.4-1.2ZM5.574,8.56H4.845l-.016-.83.744.008ZM.743,3.548a1.312,1.312,0,0,1,1.022-1.2v16.1A2.068,2.068,0,0,0,3.92,20.4H16.152a1.361,1.361,0,0,1-1.339.887H2.156A1.341,1.341,0,0,1,.743,20.05Zm0,0" transform="translate(0 0)"/><path class="a" d="M88.826,268.729h6a.365.365,0,1,0,0-.729h-6a.365.365,0,1,0,0,.729Zm0,0" transform="translate(-84.318 -256.124)"/><path class="a" d="M88.826,307.729H99.26a.365.365,0,1,0,0-.729H88.826a.365.365,0,1,0,0,.729Zm0,0" transform="translate(-84.271 -293.396)"/><path class="a" d="M88.826,346.729H99.26a.365.365,0,0,0,0-.729H88.826a.365.365,0,0,0,0,.729Zm0,0" transform="translate(-84.271 -330.668)"/><path class="a" d="M88.826,385.729H99.26a.365.365,0,1,0,0-.729H88.826a.365.365,0,1,0,0,.729Zm0,0" transform="translate(-84.271 -367.939)"/></g></svg>