<svg xmlns="http://www.w3.org/2000/svg" width="22" height="22" viewBox="0 0 22 22"><defs><style>.a{fill:none;}.b{fill:#8e8e8e;}</style></defs><g transform="translate(0.323 0.323)"><path class="a" d="M18.207,19H8.536A1.036,1.036,0,0,1,7.5,17.963V8.536A1.036,1.036,0,0,1,8.536,7.5h9.671a1.036,1.036,0,0,1,1.036,1.036v9.427A1.036,1.036,0,0,1,18.207,19Z" transform="translate(-7.5 -7.5)"/><path class="a" d="M19.18,18.207H10.263A1.729,1.729,0,0,1,8.536,16.48V7.5A1.036,1.036,0,0,0,7.5,8.536v9.671a1.036,1.036,0,0,0,1.036,1.036h9.671a1.036,1.036,0,0,0,1.036-1.036Z" transform="translate(-7.5 -7.5)"/><path class="a" d="M242.659,243.7h-9.671a1.036,1.036,0,0,1-1.036-1.036v-9.671a1.036,1.036,0,0,1,1.036-1.036h9.671a1.036,1.036,0,0,1,1.036,1.036v9.671A1.036,1.036,0,0,1,242.659,243.7Z" transform="translate(-222.342 -222.342)"/><path class="a" d="M243.632,242.658h-8.917a1.729,1.729,0,0,1-1.727-1.727v-8.98a1.036,1.036,0,0,0-1.036,1.036v9.671a1.036,1.036,0,0,0,1.036,1.036h9.671a1.036,1.036,0,0,0,1.036-1.036h-.063Z" transform="translate(-222.342 -222.341)"/></g><g transform="translate(0 0)"><path class="b" d="M8.936,12.066a.323.323,0,0,0-.323-.323H1.359a.714.714,0,0,1-.713-.713V1.359A.714.714,0,0,1,1.359.646H11.03a.714.714,0,0,1,.713.713V8.612a.323.323,0,1,0,.646,0V1.359A1.361,1.361,0,0,0,11.03,0H1.359A1.361,1.361,0,0,0,0,1.359V11.03A1.361,1.361,0,0,0,1.359,12.39H8.612A.323.323,0,0,0,8.936,12.066Z" transform="translate(0 0)"/><path class="b" d="M235.482,224.452h-2.763a.323.323,0,0,0,0,.646h2.763a.714.714,0,0,1,.713.713v9.671a.714.714,0,0,1-.713.713h-9.671a.714.714,0,0,1-.713-.713v-9.671a.714.714,0,0,1,.713-.713h5.526a.323.323,0,0,0,0-.646h-5.526a1.361,1.361,0,0,0-1.359,1.359v9.671a1.361,1.361,0,0,0,1.359,1.359h9.671a1.361,1.361,0,0,0,1.359-1.359v-9.671A1.361,1.361,0,0,0,235.482,224.452Z" transform="translate(-214.842 -214.842)"/><path class="b" d="M70.669,64.82H67.884v-.368a.323.323,0,0,0-.646,0v.368H64.452a.323.323,0,0,0,0,.646h4.759a9.018,9.018,0,0,1-1.652,3.007,9.1,9.1,0,0,1-1.3-2.082.323.323,0,1,0-.59.265,9.739,9.739,0,0,0,1.452,2.3,8.742,8.742,0,0,1-1.8,1.433.323.323,0,1,0,.333.554,9.4,9.4,0,0,0,1.9-1.508,9.417,9.417,0,0,0,1.908,1.508.323.323,0,0,0,.333-.554,8.77,8.77,0,0,1-1.8-1.433,9.716,9.716,0,0,0,1.146-1.677,8.969,8.969,0,0,0,.745-1.816h.784a.323.323,0,1,0,0-.646Z" transform="translate(-61.366 -61.366)"/><path class="b" d="M306.98,288.868a.462.462,0,0,0-.429-.288h0a.462.462,0,0,0-.429.288l0,.007-2.335,6.129a.323.323,0,1,0,.6.23l.5-1.318h3.3l.5,1.318a.323.323,0,0,0,.6-.228l-2.313-6.13Zm-1.844,4.4,1.414-3.712,1.4,3.712Z" transform="translate(-290.723 -276.206)"/><path class="b" d="M93.184,309.172,91.8,308.135a.323.323,0,1,0-.388.517l.606.454h-1.1a2.1,2.1,0,0,1-2.095-2.095V304.94a.323.323,0,1,0-.646,0v2.072a2.744,2.744,0,0,0,2.741,2.741h1.1l-.606.454a.323.323,0,0,0,.388.517l1.382-1.036a.323.323,0,0,0,0-.517Z" transform="translate(-84.391 -291.552)"/><path class="b" d="M304.742,65.746l1.382,1.036a.323.323,0,0,0,.388-.517l-.606-.454h1.1a2.1,2.1,0,0,1,2.095,2.095v2.072a.323.323,0,0,0,.646,0V67.906a2.744,2.744,0,0,0-2.741-2.741h-1.1l.606-.454a.323.323,0,1,0-.388-.517l-1.382,1.036a.323.323,0,0,0,0,.517Z" transform="translate(-291.535 -61.366)"/></g></svg>